<mxfile host="app.diagrams.net" agent="Mozilla/5.0 (Windows NT 10.0; Win64; x64) AppleWebKit/537.36 (KHTML, like Gecko) Chrome/136.0.0.0 Safari/537.36 Edg/136.0.0.0" version="27.0.3">
  <diagram name="Trang-1" id="Tj8tIPZgSv9BrQjFrYup">
    <mxGraphModel dx="1227" dy="606" grid="1" gridSize="10" guides="1" tooltips="1" connect="1" arrows="1" fold="1" page="1" pageScale="1" pageWidth="827" pageHeight="1169" math="0" shadow="0">
      <root>
        <mxCell id="0" />
        <mxCell id="1" parent="0" />
        <mxCell id="9zXoDT7Bi9TtUhTzPwcQ-1" value="Customers" style="shape=umlActor;verticalLabelPosition=bottom;verticalAlign=top;html=1;outlineConnect=0;" vertex="1" parent="1">
          <mxGeometry x="42" y="100" width="60" height="110" as="geometry" />
        </mxCell>
        <mxCell id="9zXoDT7Bi9TtUhTzPwcQ-11" style="edgeStyle=orthogonalEdgeStyle;rounded=0;orthogonalLoop=1;jettySize=auto;html=1;curved=1;" edge="1" parent="1" source="9zXoDT7Bi9TtUhTzPwcQ-5" target="9zXoDT7Bi9TtUhTzPwcQ-6">
          <mxGeometry relative="1" as="geometry" />
        </mxCell>
        <mxCell id="9zXoDT7Bi9TtUhTzPwcQ-5" value="System&amp;nbsp;" style="ellipse;whiteSpace=wrap;html=1;" vertex="1" parent="1">
          <mxGeometry x="442" y="130" width="120" height="80" as="geometry" />
        </mxCell>
        <mxCell id="9zXoDT7Bi9TtUhTzPwcQ-6" value="Database" style="shape=cylinder;whiteSpace=wrap;html=1;" vertex="1" parent="1">
          <mxGeometry x="442" y="350" width="120" height="90" as="geometry" />
        </mxCell>
        <mxCell id="9zXoDT7Bi9TtUhTzPwcQ-7" style="edgeStyle=orthogonalEdgeStyle;rounded=0;orthogonalLoop=1;jettySize=auto;html=1;entryX=0.037;entryY=0.38;entryDx=0;entryDy=0;entryPerimeter=0;" edge="1" parent="1" source="9zXoDT7Bi9TtUhTzPwcQ-1" target="9zXoDT7Bi9TtUhTzPwcQ-5">
          <mxGeometry relative="1" as="geometry">
            <Array as="points">
              <mxPoint x="172" y="160" />
              <mxPoint x="172" y="160" />
            </Array>
          </mxGeometry>
        </mxCell>
        <mxCell id="9zXoDT7Bi9TtUhTzPwcQ-8" value="1" style="text;html=1;align=center;verticalAlign=middle;resizable=0;points=[];autosize=1;strokeColor=none;fillColor=none;" vertex="1" parent="1">
          <mxGeometry x="97" y="138" width="30" height="30" as="geometry" />
        </mxCell>
        <mxCell id="9zXoDT7Bi9TtUhTzPwcQ-9" value="Gửi thông tin cập nhật" style="text;html=1;align=center;verticalAlign=middle;resizable=0;points=[];autosize=1;strokeColor=none;fillColor=none;" vertex="1" parent="1">
          <mxGeometry x="152" y="130" width="140" height="30" as="geometry" />
        </mxCell>
        <mxCell id="9zXoDT7Bi9TtUhTzPwcQ-10" value="" style="endArrow=classic;html=1;rounded=0;" edge="1" parent="1">
          <mxGeometry width="50" height="50" relative="1" as="geometry">
            <mxPoint x="192" y="130" as="sourcePoint" />
            <mxPoint x="262" y="130" as="targetPoint" />
          </mxGeometry>
        </mxCell>
        <mxCell id="9zXoDT7Bi9TtUhTzPwcQ-12" value="Lưu thông tin mới&amp;nbsp;" style="text;html=1;align=center;verticalAlign=middle;resizable=0;points=[];autosize=1;strokeColor=none;fillColor=none;" vertex="1" parent="1">
          <mxGeometry x="502" y="258" width="120" height="30" as="geometry" />
        </mxCell>
        <mxCell id="9zXoDT7Bi9TtUhTzPwcQ-13" value="2" style="text;html=1;align=center;verticalAlign=middle;resizable=0;points=[];autosize=1;strokeColor=none;fillColor=none;" vertex="1" parent="1">
          <mxGeometry x="497" y="208" width="30" height="30" as="geometry" />
        </mxCell>
        <mxCell id="9zXoDT7Bi9TtUhTzPwcQ-14" value="" style="endArrow=classic;html=1;rounded=0;" edge="1" parent="1">
          <mxGeometry width="50" height="50" relative="1" as="geometry">
            <mxPoint x="527" y="218" as="sourcePoint" />
            <mxPoint x="527" y="258" as="targetPoint" />
          </mxGeometry>
        </mxCell>
        <mxCell id="9zXoDT7Bi9TtUhTzPwcQ-15" style="edgeStyle=orthogonalEdgeStyle;rounded=0;orthogonalLoop=1;jettySize=auto;html=1;entryX=1.017;entryY=0.41;entryDx=0;entryDy=0;entryPerimeter=0;" edge="1" parent="1" source="9zXoDT7Bi9TtUhTzPwcQ-6" target="9zXoDT7Bi9TtUhTzPwcQ-5">
          <mxGeometry relative="1" as="geometry">
            <Array as="points">
              <mxPoint x="622" y="395" />
              <mxPoint x="622" y="163" />
            </Array>
          </mxGeometry>
        </mxCell>
        <mxCell id="9zXoDT7Bi9TtUhTzPwcQ-16" value="" style="endArrow=classic;html=1;rounded=0;" edge="1" parent="1">
          <mxGeometry width="50" height="50" relative="1" as="geometry">
            <mxPoint x="632" y="320" as="sourcePoint" />
            <mxPoint x="632" y="270" as="targetPoint" />
          </mxGeometry>
        </mxCell>
        <mxCell id="9zXoDT7Bi9TtUhTzPwcQ-17" value="3" style="text;html=1;align=center;verticalAlign=middle;resizable=0;points=[];autosize=1;strokeColor=none;fillColor=none;" vertex="1" parent="1">
          <mxGeometry x="587" y="368" width="30" height="30" as="geometry" />
        </mxCell>
        <mxCell id="9zXoDT7Bi9TtUhTzPwcQ-18" value="Xác nhận đã lưu" style="text;html=1;align=center;verticalAlign=middle;resizable=0;points=[];autosize=1;strokeColor=none;fillColor=none;" vertex="1" parent="1">
          <mxGeometry x="632" y="270" width="110" height="30" as="geometry" />
        </mxCell>
        <mxCell id="9zXoDT7Bi9TtUhTzPwcQ-19" style="edgeStyle=orthogonalEdgeStyle;rounded=0;orthogonalLoop=1;jettySize=auto;html=1;entryX=0.5;entryY=0;entryDx=0;entryDy=0;entryPerimeter=0;" edge="1" parent="1" source="9zXoDT7Bi9TtUhTzPwcQ-5" target="9zXoDT7Bi9TtUhTzPwcQ-1">
          <mxGeometry relative="1" as="geometry">
            <Array as="points">
              <mxPoint x="502" y="80" />
              <mxPoint x="72" y="80" />
            </Array>
          </mxGeometry>
        </mxCell>
        <mxCell id="9zXoDT7Bi9TtUhTzPwcQ-20" value="4" style="text;html=1;align=center;verticalAlign=middle;resizable=0;points=[];autosize=1;strokeColor=none;fillColor=none;" vertex="1" parent="1">
          <mxGeometry x="472" y="100" width="30" height="30" as="geometry" />
        </mxCell>
        <mxCell id="9zXoDT7Bi9TtUhTzPwcQ-21" value="Thông báo hoàn tất" style="text;html=1;align=center;verticalAlign=middle;resizable=0;points=[];autosize=1;strokeColor=none;fillColor=none;" vertex="1" parent="1">
          <mxGeometry x="190" y="50" width="130" height="30" as="geometry" />
        </mxCell>
        <mxCell id="9zXoDT7Bi9TtUhTzPwcQ-22" value="" style="endArrow=classic;html=1;rounded=0;entryX=0.231;entryY=0;entryDx=0;entryDy=0;entryPerimeter=0;" edge="1" parent="1" target="9zXoDT7Bi9TtUhTzPwcQ-21">
          <mxGeometry width="50" height="50" relative="1" as="geometry">
            <mxPoint x="300" y="50" as="sourcePoint" />
            <mxPoint x="250" as="targetPoint" />
          </mxGeometry>
        </mxCell>
      </root>
    </mxGraphModel>
  </diagram>
</mxfile>
